<svg width="1502" height="402" viewBox="0 0 1502 402" fill="none" xmlns="http://www.w3.org/2000/svg">
<path d="M1 401V2.8556C1 2.8556 184.397 -7.83276 428.333 22.0949C672.269 52.0225 1283 237.863 1283 237.863V401H1Z" fill="#94B399"/>
<path d="M1 401V2.8556C1 2.8556 184.397 -7.83276 428.333 22.0949C672.269 52.0225 1283 237.863 1283 237.863V401H1Z" fill="url(#paint0_linear)"/>
<path d="M1 401V2.8556C1 2.8556 184.397 -7.83276 428.333 22.0949C672.269 52.0225 1283 237.863 1283 237.863V401H1Z" stroke="#94B299"/>
<path d="M1501 401.236V172.045C1501 172.045 1056.4 174.433 642.967 202.734C229.532 231.035 1 278.205 1 278.205V401.236H1501Z" fill="#94B399"/>
<path d="M1501 401.236V172.045C1501 172.045 1056.4 174.433 642.967 202.734C229.532 231.035 1 278.205 1 278.205V401.236H1501Z" fill="url(#paint1_linear)"/>
<path d="M1501 401.236V172.045C1501 172.045 1056.4 174.433 642.967 202.734C229.532 231.035 1 278.205 1 278.205V401.236H1501Z" stroke="#94B299"/>
<defs>
<linearGradient id="paint0_linear" x1="642" y1="85.1493" x2="642" y2="401" gradientUnits="userSpaceOnUse">
<stop stop-color="#82FF96"/>
<stop offset="1" stop-color="#94B299" stop-opacity="0"/>
</linearGradient>
<linearGradient id="paint1_linear" x1="751" y1="163.034" x2="751" y2="401.236" gradientUnits="userSpaceOnUse">
<stop offset="0.369792" stop-color="#82FF96"/>
<stop offset="0.848958" stop-color="#94B299"/>
</linearGradient>
</defs>
</svg>
