<?xml version="1.0" encoding="utf-8"?>
<!-- Generator: Adobe Illustrator 23.0.1, SVG Export Plug-In . SVG Version: 6.00 Build 0)  -->
<svg version="1.1" xmlns="http://www.w3.org/2000/svg" xmlns:xlink="http://www.w3.org/1999/xlink" x="0px" y="0px"
	 viewBox="0 0 100 100" style="enable-background:new 0 0 100 100;" xml:space="preserve">
<style type="text/css">
	.st0{display:none;}
	.st1{display:inline;fill:#6F614A;stroke:#000000;stroke-miterlimit:10;}
	.st2{display:inline;fill:#9BC7EB;stroke:#000000;stroke-miterlimit:10;}
	.st3{display:inline;fill:none;stroke:#000000;stroke-linecap:round;stroke-miterlimit:10;}
	.st4{display:inline;}
	.st5{display:inline;fill:#FFFFFF;}
	
		.st6{display:inline;fill:#FFDEAA;stroke:#000000;stroke-width:0.5;stroke-linecap:round;stroke-linejoin:round;stroke-miterlimit:10;}
	.st7{fill:#FFF577;stroke:#000000;stroke-linecap:round;stroke-linejoin:round;stroke-miterlimit:10;}
	.st8{fill:none;stroke:#000000;stroke-linecap:round;stroke-miterlimit:10;}
	.st9{fill:#FFFFFF;}
	.st10{fill:#00A651;stroke:#000000;stroke-linecap:round;stroke-linejoin:round;stroke-miterlimit:10;}
	.st11{fill:#00A651;}
	.st12{display:inline;fill:#2BB673;stroke:#000000;stroke-width:0.5;stroke-miterlimit:10;}
	.st13{fill:#006838;stroke:#006838;stroke-width:0.5;stroke-miterlimit:10;}
	.st14{display:inline;fill:#BBD86B;stroke:#000000;stroke-linecap:round;stroke-linejoin:round;stroke-miterlimit:10;}
	.st15{display:inline;fill:#8B5E3C;stroke:#000000;stroke-miterlimit:10;}
	.st16{display:inline;fill:#CEA78E;}
	.st17{display:inline;fill:none;stroke:#000000;stroke-width:0.5;stroke-miterlimit:10;}
	.st18{fill:#2BB673;stroke:#000000;stroke-width:0.25;stroke-miterlimit:10;}
	.st19{fill:#BBD86B;stroke:#000000;stroke-width:0.5;stroke-linecap:round;stroke-linejoin:round;stroke-miterlimit:10;}
	.st20{fill:#8B5E3C;stroke:#000000;stroke-width:0.5;stroke-miterlimit:10;}
	.st21{fill:#CEA78E;}
	.st22{fill:none;stroke:#000000;stroke-width:0.5;stroke-linecap:round;stroke-miterlimit:10;}
	.st23{fill:#FFF577;stroke:#000000;stroke-width:0.5;stroke-linecap:round;stroke-linejoin:round;stroke-miterlimit:10;}
	.st24{fill:#00A651;stroke:#000000;stroke-width:0.5;stroke-linecap:round;stroke-linejoin:round;stroke-miterlimit:10;}
	.st25{fill:#6F614A;stroke:#000000;stroke-width:0.5;stroke-miterlimit:10;}
	.st26{fill:#9BC7EB;stroke:#000000;stroke-width:0.5;stroke-miterlimit:10;}
	.st27{fill:#FFDEAA;stroke:#000000;stroke-width:0.25;stroke-linecap:round;stroke-linejoin:round;stroke-miterlimit:10;}
</style>
<g id="Sketch" class="st0">
	
		<image style="display:inline;overflow:visible;" width="3024" height="4032" xlink:href="76FF0410.jpg"  transform="matrix(2.321704e-02 0 0 2.321704e-02 14.8958 3.1944)">
	</image>
</g>
<g id="Mushroom" class="st0">
	<path class="st1" d="M29.4,8.9c6.3-5.5,14.9-7,23-6.2c7.8,0.7,15.5,3,22.1,7.2c3.9,2.5,16.3,12,9.3,17c-1.4,1-3.2,1.3-4.9,1.5
		c-8.6,1.2-17.4,1.7-26.1,2.1C43.9,31,35,31,26.1,29.9c-3.6-0.5-9.9-1.2-11.7-4.9c-1.5-3.3,2.6-6,5-7.4c1.7-1,3.3-2.1,4.7-3.5
		C25.9,12.3,27.6,10.5,29.4,8.9z"/>
	<path class="st2" d="M26.7,30.9c0.6,2.9,1.2,8.3-0.7,16C23.2,57.7,7.4,91.6,50,90.8c42.6,0.9,26.8-33,24.1-43.9
		c-2.3-9.2-1-15.1-0.4-17.4l0.2-0.4c-7,0.8-14.1,1.2-21.1,1.5C44,31,35.2,31,26.5,30L26.7,30.9z"/>
	<path class="st3" d="M47.5,61.4c0,0,2.6,3.5,6.3,0"/>
	<circle class="st4" cx="42.4" cy="50.3" r="3.7"/>
	<circle class="st5" cx="43.5" cy="49" r="1.6"/>
	<path class="st3" d="M36.9,44.6c0,0,2.2-2.9,6.2-1.4"/>
	<path class="st3" d="M63.8,44.6c0,0-2.2-2.9-6.2-1.4"/>
	<circle class="st4" cx="58.7" cy="50.3" r="3.7"/>
	<circle class="st5" cx="59.8" cy="49" r="1.6"/>
	<path class="st3" d="M33.7,62.1c0,0-11.9,15.7-4.4-4.6"/>
	<path class="st3" d="M68.5,61.6c0,0,11.9,15.7,4.4-4.6"/>
	<path class="st2" d="M32.7,89.6c0.4,2.4-0.1,8,4.9,7.9c1.6,0,2.5-1.2,3-2.2c0.7-1.4,1.2-3,1.7-4.5l0-0.4c-3.8-0.4-7-1.1-9.7-2.1
		L32.7,89.6z"/>
	<path class="st2" d="M64.6,89.6c-0.4,2.4,0.1,8-4.9,7.9c-1.6,0-2.5-1.2-3-2.2c-0.7-1.4-1.2-3-1.7-4.5l0-0.2
		c3.7-0.2,6.9-0.7,9.7-1.4L64.6,89.6z"/>
	<path class="st6" d="M32.7,30.8c0,0,0.6,3.7,0,7.3"/>
	<path class="st6" d="M65.2,30c0,0-0.2,5.5,0.7,10.7"/>
	<path class="st6" d="M68.5,30c0,0-0.3,3.7,0.5,7.1"/>
</g>
<g id="Lemon">
	<path class="st7" d="M89.5,48.3c-2.4,15-19.9,26.6-41.1,26.6c-3.1,0-6.1-0.2-9.2-0.7c-7.5-1.2-15.1-4-21.5-9.1
		c-2.6-2.1-5-4.6-6.9-7.6c-0.9-1.4-1.5-3.1-2.4-4.6c0,0,0-0.1-0.1-0.1c-1.1-1.9-2.9-3.1-4.3-4.7c-1.4-1.6-2.5-3.9-0.5-5.5
		c1.1-0.9,2.6-1.2,3.6-2.5c1.3-1.7,1.7-4.5,2.7-6.5c1.1-2.1,2.5-4,4-5.7c3-3.3,6.6-5.7,10.2-7.6c7.6-4.1,16-5.8,24.3-5.8
		c8.2,0,16.5,1.7,24.1,5.7c3.2,1.7,6.2,3.7,8.9,6.4c1.2,1.2,2.4,2.5,3.4,3.9c0.9,1.2,1.6,3.2,2.5,4.2c0.3,0.3,0.5,0.5,0.9,0.6
		c2,0.3,4,0.4,5.9,1.2c1.2,0.6,3.4,2,3.3,4c-0.1,2.7-2.6,4.4-4.2,5.5C92.7,46.3,89.6,47.4,89.5,48.3z"/>
	<path class="st8" d="M43.6,59.4c0,0,3.8,5.2,9.5,0"/>
	<circle cx="35.9" cy="42.8" r="5.5"/>
	<circle class="st9" cx="37.5" cy="40.8" r="2.4"/>
	<path class="st8" d="M27.7,34.3c0,0,3.3-4.3,9.3-2.1"/>
	<path class="st8" d="M68,34.3c0,0-3.3-4.3-9.3-2.1"/>
	<circle cx="60.3" cy="42.8" r="5.5"/>
	<circle class="st9" cx="62" cy="40.8" r="2.4"/>
	<circle cx="78.1" cy="28.1" r="2"/>
	<circle cx="81" cy="33.9" r="0.9"/>
	<circle cx="20.9" cy="61.7" r="1.5"/>
	<g>
		<path class="st10" d="M67.2,17.3c0,0,14.6,4.9,17.8-7.3l0.1-0.4c0,0-14.8-4.9-18.1,7.3l0.1,0.2L67.2,17.3z"/>
		<g>
			<path class="st11" d="M67.7,16.9c0,0,9.4-7.1,14.7-5.4"/>
			<path d="M67.7,16.9c2.1-1.7,4.3-3.2,6.8-4.4c1.2-0.6,2.5-1.2,3.8-1.4c1.3-0.2,2.9-0.3,4.1,0.4c0,0,0,0,0,0.1c0,0,0,0-0.1,0
				c-1.3-0.1-2.6,0.1-3.8,0.5c-1.2,0.3-2.5,0.7-3.7,1.2c-1.2,0.5-2.4,1.1-3.6,1.7C70,15.5,68.9,16.2,67.7,16.9
				C67.7,17,67.7,17,67.7,16.9C67.7,16.9,67.7,16.9,67.7,16.9z"/>
		</g>
	</g>
	<g>
		<path class="st10" d="M66.7,17.5c0,0,8.5-5.6,3.5-12.2L70,5c0,0-8.6,5.7-3.6,12.3l0.1,0L66.7,17.5z"/>
		<g>
			<path class="st11" d="M66.7,17c0,0,0.2-7.8,3.2-9.8"/>
			<path d="M66.6,17c-0.1-1.8,0-3.6,0.4-5.3c0.2-0.9,0.3-1.8,0.8-2.6c0.5-0.8,1.1-1.6,2-1.9c0,0,0.1,0,0.1,0c0,0,0,0,0,0
				C69.3,8,69,8.8,68.7,9.5c-0.3,0.8-0.7,1.5-0.9,2.4C67.3,13.6,66.9,15.3,66.6,17C66.7,17.1,66.7,17.1,66.6,17
				C66.6,17.1,66.6,17.1,66.6,17z"/>
		</g>
	</g>
	<path class="st7" d="M65.9,72c-3.6,1.2-7.4,2.1-11.5,2.5l0.2,0.4c0.5,1.3,0.9,2.6,1.6,3.9c0.6,1.1,1.7,2.3,3.6,2.4
		c5.9,0.1,5.6-5.8,6-8.5L65.9,72z"/>
	<path class="st7" d="M29.9,71.7c3.1,1.1,6.2,1.9,9.3,2.4c0.7,0.1,1.5,0.2,2.2,0.3l-0.2,0.4c-0.5,1.3-0.9,2.6-1.6,3.9
		c-0.6,1.1-1.7,2.3-3.6,2.4c-6.1,0.1-5.5-6.1-6.1-8.8L29.9,71.7z"/>
</g>
<g id="Avocado" class="st0">
	<path class="st12" d="M70.9,42c-1.6-4.8-0.4-9.6,0.5-14.8c0.3-2.1,0.5-4.2,0.4-6.2C71.4,15.1,68,9.6,63,6.3S51.6,1.8,45.7,2.9
		c-5.1,1-9.9,3.7-13.1,7.7s-4.9,9.1-4.4,14.1c0.5,4.7,2.9,9.3,2.1,14c-0.7,4.4-4,7.8-6.2,11.7C19.5,58.6,19.9,69,25,76.9
		s14.4,12.9,23.9,13.3c11.3,0.4,22.7-6,27.6-15.9c2.2-4.5,3-9.6,2.4-14.5c-0.3-2.6-1-5.3-2.1-7.7c-1.1-2.4-2.6-4.2-4.1-6.4
		C71.9,44.5,71.3,43.2,70.9,42z"/>
	<g class="st4">
		<path class="st13" d="M48.9,90.1c11.3,0.4,22.7-6,27.6-15.9c2.2-4.5,3-9.6,2.4-14.5c-0.3-2.6-1-5.3-2.1-7.7
			c-1.1-2.4-2.6-4.2-4.1-6.4c-0.9-1.3-1.5-2.5-1.9-3.8c-1.6-4.8-0.4-9.6,0.5-14.8c0.3-2.1,0.5-4.2,0.4-6.2C71.4,15.1,68,9.6,63,6.3
			c-3.8-2.5-8.4-3.8-13-3.8c4.5,0,9,1.2,12.7,3.8c4.8,3.3,8.1,8.8,8.5,14.7c0.1,2.1-0.1,4.2-0.4,6.2c-0.8,5.2-2,10-0.4,14.8
			c0.4,1.3,1,2.5,1.8,3.8c1.4,2.2,2.9,3.9,4,6.4c1,2.5,1.7,5.1,2,7.7c0.6,4.9-0.2,10-2.4,14.5c-4.6,9.6-15.2,15.9-25.9,15.9"/>
		<path class="st13" d="M48.9,90.1C39.3,89.8,30,84.7,25,76.9s-5.4-18.3-0.9-26.4c2.2-3.9,5.5-7.4,6.2-11.7c0.8-4.7-1.6-9.3-2.1-14
			c-0.5-5,1.1-10.2,4.4-14.1s8-6.7,13.1-7.7c1.4-0.3,2.9-0.4,4.4-0.4c-1.4,0-2.8,0.2-4.2,0.4c-5,1-9.7,3.7-12.8,7.7
			s-4.8,9.1-4.3,14.1c0.5,4.7,2.8,9.3,2.1,14c-0.7,4.4-3.9,7.8-6,11.7c-4.5,8.1-4,18.5,0.9,26.4S39.6,89.8,48.9,90.1
			c0.4,0,0.7,0,1,0"/>
	</g>
	<path class="st14" d="M69.2,42c-1.4-4.6-0.3-9.2,0.4-14.2c0.3-2,0.5-4,0.4-6c-0.4-5.6-3.5-10.8-8-14S51.4,3.5,46,4.6
		c-4.7,1-9.1,3.6-12.1,7.4s-4.5,8.7-4,13.5c0.5,4.5,2.6,8.9,1.9,13.4c-0.7,4.2-3.7,7.5-5.7,11.2c-4.2,7.8-3.8,17.8,0.8,25.3
		c4.6,7.5,13.2,12.4,22,12.7c10.4,0.4,20.9-5.8,25.4-15.2c2-4.3,2.7-9.2,2.2-13.9c-0.3-2.5-0.9-5-1.9-7.4c-1-2.3-2.4-4-3.8-6.1
		C70.1,44.4,69.6,43.2,69.2,42z"/>
	<ellipse class="st15" cx="50" cy="61.9" rx="15.1" ry="18.2"/>
	<path class="st16" d="M38.9,65c0.2,2.9,0.5,5.2,2.6,7.6c1.9,2.1,4.7,3.8,7.6,4.4c-3.3-1-5.7-3.6-7.8-6.2
		C40.1,69.1,39.1,67.1,38.9,65z"/>
	<path class="st3" d="M46.9,33.6c0,0,2.8,3.8,6.9,0"/>
	<circle class="st4" cx="42.3" cy="26.8" r="3.7"/>
	<circle class="st5" cx="43.5" cy="25.5" r="1.6"/>
	<path class="st3" d="M36.9,21.1c0,0,2.2-2.9,6.2-1.4"/>
	<path class="st3" d="M63.9,21.1c0,0-2.2-2.9-6.2-1.4"/>
	<circle class="st4" cx="58.8" cy="26.8" r="3.7"/>
	<circle class="st5" cx="59.9" cy="25.5" r="1.6"/>
	<path class="st3" d="M33.9,55.6c0,0-13,17.2-4.8-5.1"/>
	<path class="st3" d="M66.1,55.6c0,0,13,17.2,4.8-5.1"/>
	<path class="st12" d="M36.5,87c3.3,1.6,6.9,2.7,10.6,3l0,0.2c-0.6,1.6-1,3.3-1.9,4.9c-0.6,1.1-1.6,2.3-3.3,2.4
		c-5.5,0.2-4.9-6-5.4-8.6l0-1.4L36.5,87z"/>
	<path class="st12" d="M63.7,87c-3.3,1.6-6.9,2.7-10.6,3l0,0.2c0.6,1.6,1,3.3,1.9,4.9c0.6,1.1,1.6,2.3,3.3,2.4
		c5.5,0.2,4.9-6,5.4-8.6l0-1.4L63.7,87z"/>
	<path class="st17" d="M70.9,42c-1.6-4.8-0.4-9.6,0.5-14.8c0.3-2.1,0.5-4.2,0.4-6.2C71.4,15.1,68,9.6,63,6.3S51.6,1.8,45.7,2.9
		c-5.1,1-9.9,3.7-13.1,7.7s-4.9,9.1-4.4,14.1c0.5,4.7,2.9,9.3,2.1,14c-0.7,4.4-4,7.8-6.2,11.7C19.5,58.6,19.9,69,25,76.9
		s14.4,12.9,23.9,13.3c11.3,0.4,22.7-6,27.6-15.9c2.2-4.5,3-9.6,2.4-14.5c-0.3-2.6-1-5.3-2.1-7.7c-1.1-2.4-2.6-4.2-4.1-6.4
		C71.9,44.5,71.3,43.2,70.9,42z"/>
</g>
<g id="All_3" class="st0">
	<g class="st4">
		<path class="st18" d="M90.3,25.3c-0.8-2.5-0.2-5.1,0.2-7.8c0.2-1.1,0.3-2.2,0.2-3.3c-0.2-3.1-2-6-4.6-7.7s-6-2.4-9.1-1.7
			c-2.7,0.5-5.2,2-6.9,4c-1.7,2.1-2.6,4.8-2.3,7.4c0.3,2.5,1.5,4.9,1.1,7.4c-0.4,2.3-2.1,4.1-3.3,6.2c-2.4,4.3-2.2,9.8,0.5,13.9
			c2.6,4.1,7.6,6.8,12.6,7c6,0.2,12-3.2,14.5-8.4c1.2-2.4,1.6-5,1.3-7.6c-0.2-1.4-0.5-2.8-1.1-4.1c-0.6-1.3-1.4-2.2-2.1-3.3
			C90.8,26.6,90.5,25.9,90.3,25.3z"/>
		<path class="st19" d="M89.4,25.3c-0.8-2.4-0.2-4.8,0.2-7.5c0.2-1,0.3-2.1,0.2-3.1C89.6,11.7,88,9,85.6,7.3
			c-2.4-1.7-5.5-2.3-8.4-1.7c-2.5,0.5-4.8,1.9-6.4,3.9s-2.4,4.6-2.1,7.1c0.2,2.4,1.4,4.7,1,7.1c-0.3,2.2-1.9,4-3,5.9
			c-2.2,4.1-2,9.3,0.4,13.3s6.9,6.5,11.6,6.7c5.5,0.2,11-3,13.4-8c1.1-2.3,1.4-4.8,1.2-7.3c-0.1-1.3-0.5-2.6-1-3.9
			c-0.5-1.2-1.3-2.1-2-3.2C89.9,26.5,89.6,25.9,89.4,25.3z"/>
		<ellipse class="st20" cx="79.3" cy="35.8" rx="8" ry="9.6"/>
		<path class="st21" d="M73.5,37.4c0.1,1.5,0.3,2.8,1.4,4c1,1.1,2.5,2,4,2.3c-1.7-0.5-3-1.9-4.1-3.3C74.1,39.6,73.6,38.5,73.5,37.4z
			"/>
		<path class="st22" d="M77.7,20.8c0,0,1.5,2,3.6,0"/>
		<circle cx="75.3" cy="17.3" r="1.9"/>
		<circle class="st9" cx="75.9" cy="16.6" r="0.8"/>
		<path class="st22" d="M72.4,14.3c0,0,1.2-1.5,3.3-0.7"/>
		<path class="st22" d="M86.6,14.3c0,0-1.2-1.5-3.3-0.7"/>
		<circle cx="83.9" cy="17.3" r="1.9"/>
		<circle class="st9" cx="84.5" cy="16.6" r="0.8"/>
		<path class="st22" d="M70.9,32.4c0,0-6.9,9.1-2.5-2.7"/>
		<path class="st22" d="M87.8,32.4c0,0,6.9,9.1,2.5-2.7"/>
		<path class="st18" d="M72.2,49c1.7,0.8,3.6,1.4,5.6,1.6l0,0.1c-0.3,0.9-0.5,1.7-1,2.6c-0.3,0.6-0.8,1.2-1.8,1.3
			c-2.9,0.1-2.6-3.2-2.8-4.6l0-0.7L72.2,49z"/>
		<path class="st18" d="M86.5,49c-1.7,0.8-3.6,1.4-5.6,1.6l0,0.1c0.3,0.9,0.5,1.7,1,2.6c0.3,0.6,0.8,1.2,1.8,1.3
			c2.9,0.1,2.6-3.2,2.8-4.6l0-0.7L86.5,49z"/>
	</g>
	<g class="st4">
		<path class="st23" d="M74.1,78.3c-1.3,7.9-10.5,14-21.6,14c-1.6,0-3.2-0.1-4.8-0.4c-3.9-0.7-7.9-2.1-11.3-4.8
			c-1.4-1.1-2.6-2.4-3.6-4c-0.5-0.8-0.8-1.6-1.2-2.4c0,0,0,0,0-0.1c-0.6-1-1.5-1.6-2.3-2.5c-0.8-0.8-1.3-2-0.3-2.9
			c0.6-0.5,1.4-0.6,1.9-1.3c0.7-0.9,0.9-2.4,1.4-3.4c0.6-1.1,1.3-2.1,2.1-3c1.6-1.7,3.5-3,5.3-4c4-2.1,8.4-3,12.8-3
			c4.3,0,8.7,0.9,12.7,3c1.7,0.9,3.3,2,4.7,3.4c0.6,0.6,1.2,1.3,1.8,2c0.5,0.6,0.8,1.7,1.3,2.2c0.2,0.2,0.3,0.3,0.5,0.3
			c1,0.2,2.1,0.2,3.1,0.6c0.6,0.3,1.8,1.1,1.7,2.1c0,1.4-1.4,2.3-2.2,2.9C75.7,77.3,74.1,77.9,74.1,78.3z"/>
		<path class="st22" d="M49.9,84.2c0,0,2,2.8,5,0"/>
		<circle cx="45.8" cy="75.4" r="2.9"/>
		<circle class="st9" cx="46.7" cy="74.4" r="1.2"/>
		<path class="st22" d="M41.5,71c0,0,1.7-2.3,4.9-1.1"/>
		<path class="st22" d="M62.8,71c0,0-1.7-2.3-4.9-1.1"/>
		<circle cx="58.7" cy="75.4" r="2.9"/>
		<circle class="st9" cx="59.6" cy="74.4" r="1.2"/>
		<circle cx="68.1" cy="67.7" r="1"/>
		<circle cx="69.6" cy="70.8" r="0.5"/>
		<circle cx="38" cy="85.4" r="0.8"/>
		<g>
			<path class="st24" d="M62.4,62c0,0,7.7,2.6,9.4-3.9l0-0.2c0,0-7.8-2.6-9.5,3.8l0,0.1L62.4,62z"/>
			<g>
				<path class="st11" d="M62.6,61.8c0,0,5-3.7,7.7-2.8"/>
				<path d="M62.6,61.8c1.1-0.9,2.3-1.7,3.6-2.3c0.6-0.3,1.3-0.6,2-0.7c0.7-0.1,1.5-0.1,2.1,0.2c0,0,0,0,0,0c0,0,0,0,0,0
					c-0.7-0.1-1.4,0-2,0.2c-0.7,0.2-1.3,0.4-2,0.6C65.1,60.4,63.8,61.1,62.6,61.8C62.6,61.8,62.6,61.8,62.6,61.8
					C62.6,61.8,62.6,61.8,62.6,61.8z"/>
			</g>
		</g>
		<g>
			<path class="st24" d="M62.1,62.1c0,0,4.5-2.9,1.8-6.4l-0.1-0.1c0,0-4.5,3-1.9,6.5L62.1,62.1L62.1,62.1z"/>
			<g>
				<path class="st11" d="M62.1,61.9c0,0,0.1-4.1,1.7-5.2"/>
				<path d="M62,61.9c0-0.9,0-1.9,0.2-2.8c0.1-0.5,0.2-0.9,0.4-1.4c0.2-0.4,0.6-0.8,1.1-1c0,0,0,0,0,0c0,0,0,0,0,0
					c-0.3,0.4-0.5,0.8-0.6,1.2c-0.2,0.4-0.4,0.8-0.5,1.3C62.4,60.1,62.2,61,62,61.9C62.1,61.9,62.1,61.9,62,61.9
					C62,61.9,62,61.9,62,61.9z"/>
			</g>
		</g>
		<path class="st23" d="M61.7,90.8c-1.9,0.6-3.9,1.1-6,1.3l0.1,0.2c0.3,0.7,0.5,1.4,0.9,2.1c0.3,0.6,0.9,1.2,1.9,1.2
			c3.1,0,2.9-3,3.2-4.5L61.7,90.8z"/>
		<path class="st23" d="M42.7,90.7c1.6,0.6,3.3,1,4.9,1.3c0.4,0.1,0.8,0.1,1.2,0.2l-0.1,0.2c-0.3,0.7-0.5,1.4-0.9,2.1
			c-0.3,0.6-0.9,1.2-1.9,1.2c-3.2,0-2.9-3.2-3.2-4.6L42.7,90.7z"/>
	</g>
	<g class="st4">
		<path class="st25" d="M13.4,7.7c3.3-2.9,7.8-3.7,12.1-3.3c4.1,0.4,8.2,1.6,11.7,3.8c2,1.3,8.6,6.3,4.9,8.9
			c-0.7,0.5-1.7,0.7-2.6,0.8c-4.5,0.6-9.2,0.9-13.7,1.1c-4.7,0.2-9.4,0.3-14-0.3c-1.9-0.2-5.2-0.6-6.1-2.6c-0.8-1.8,1.4-3.1,2.6-3.9
			c0.9-0.5,1.7-1.1,2.5-1.8C11.6,9.5,12.5,8.6,13.4,7.7z"/>
		<path class="st26" d="M12,19.3c0.3,1.5,0.6,4.4-0.4,8.4c-1.4,5.8-9.8,23.6,12.7,23.1c22.4,0.5,14.1-17.4,12.7-23.1
			c-1.2-4.8-0.5-8-0.2-9.2l0.1-0.2c-3.7,0.4-7.4,0.6-11.1,0.8c-4.6,0.2-9.2,0.3-13.8-0.3L12,19.3z"/>
		<path class="st22" d="M23,35.3c0,0,1.3,1.8,3.3,0"/>
		<circle cx="20.2" cy="29.5" r="1.9"/>
		<circle class="st9" cx="20.8" cy="28.8" r="0.8"/>
		<path class="st22" d="M17.4,26.5c0,0,1.2-1.5,3.2-0.7"/>
		<path class="st22" d="M31.5,26.5c0,0-1.2-1.5-3.2-0.7"/>
		<circle cx="28.8" cy="29.5" r="1.9"/>
		<circle class="st9" cx="29.4" cy="28.8" r="0.8"/>
		<path class="st22" d="M15.7,35.7c0,0-6.3,8.3-2.3-2.4"/>
		<path class="st22" d="M34,35.4c0,0,6.3,8.3,2.3-2.4"/>
		<path class="st26" d="M15.2,50.2c0.2,1.3,0,4.2,2.6,4.2c0.8,0,1.3-0.6,1.6-1.1c0.4-0.8,0.6-1.6,0.9-2.4l0-0.2
			c-2-0.2-3.7-0.6-5.1-1.1L15.2,50.2z"/>
		<path class="st26" d="M31.9,50.2c-0.2,1.3,0,4.2-2.6,4.2c-0.8,0-1.3-0.6-1.6-1.1c-0.4-0.8-0.6-1.6-0.9-2.4l0-0.1
			c2-0.1,3.7-0.4,5.1-0.8L31.9,50.2z"/>
		<path class="st27" d="M15.1,19.2c0,0,0.3,2,0,3.9"/>
		<path class="st27" d="M32.2,18.8c0,0-0.1,2.9,0.4,5.7"/>
		<path class="st27" d="M34,18.8c0,0-0.2,1.9,0.2,3.7"/>
	</g>
</g>
</svg>
